<?xml version="1.0" standalone="no"?>
<!DOCTYPE svg PUBLIC "-//W3C//DTD SVG 20010904//EN"
 "http://www.w3.org/TR/2001/REC-SVG-20010904/DTD/svg10.dtd">
<svg version="1.0" xmlns="http://www.w3.org/2000/svg"
 width="629.000000pt" height="629.000000pt" viewBox="0 0 629.000000 629.000000"
 preserveAspectRatio="xMidYMid meet">
<metadata>
Created by potrace 1.14, written by Peter Selinger 2001-2017
</metadata>
<g transform="translate(0.000000,629.000000) scale(0.100000,-0.100000)"
fill="#000000" stroke="none">
<path d="M363 6271 c-167 -48 -303 -189 -349 -364 -21 -81 -20 -1049 2 -1132
47 -179 194 -323 374 -366 73 -17 989 -18 1067 -1 189 42 342 194 382 380 7
35 11 222 11 560 0 557 -1 571 -61 681 -66 123 -176 209 -314 245 -51 13 -137
15 -555 15 -442 -1 -502 -3 -557 -18z"/>
<path d="M2595 6276 c-133 -32 -273 -143 -328 -260 -56 -118 -57 -135 -54
-696 2 -283 6 -527 10 -542 34 -129 134 -257 247 -317 120 -64 125 -64 665
-64 431 0 498 2 555 17 86 23 151 60 215 121 68 64 110 132 137 220 21 68 22
86 22 580 -1 353 -4 527 -13 564 -39 178 -183 327 -362 375 -73 19 -1016 21
-1094 2z"/>
<path d="M4802 6274 c-170 -45 -296 -164 -354 -333 -22 -65 -22 -72 -22 -596
0 -525 0 -531 22 -599 44 -132 134 -237 255 -296 111 -53 138 -56 662 -54 462
1 483 1 551 22 185 56 324 213 352 397 3 22 6 270 6 550 0 500 -1 511 -22 576
-56 165 -187 289 -355 334 -77 20 -1018 20 -1095 -1z"/>
<path d="M405 4088 c-150 -32 -278 -128 -348 -263 -57 -111 -58 -112 -55 -695
l3 -535 24 -60 c59 -150 177 -261 330 -312 65 -22 1014 -27 1105 -6 181 42
343 206 376 383 6 33 10 254 9 570 -1 512 -1 515 -24 583 -55 161 -180 280
-345 328 -52 15 -1006 21 -1075 7z"/>
<path d="M2650 4093 c-195 -24 -361 -168 -421 -366 -16 -54 -18 -106 -18 -571
0 -431 2 -520 15 -571 49 -186 189 -322 385 -372 13 -3 245 -7 514 -8 531 -2
556 0 662 52 114 56 213 174 254 302 20 63 21 88 23 561 1 272 -2 519 -6 547
-28 189 -154 339 -339 404 -63 22 -73 23 -554 24 -269 0 -501 -1 -515 -2z"/>
<path d="M4788 4076 c-165 -48 -291 -170 -340 -330 -22 -69 -22 -83 -22 -581
0 -280 3 -528 6 -550 14 -84 67 -190 129 -257 44 -47 142 -108 208 -130 64
-21 84 -21 561 -23 388 -1 508 1 555 12 173 40 306 161 366 334 22 63 22 72
22 599 0 528 0 536 -22 599 -54 154 -165 267 -317 322 -57 21 -75 22 -566 24
-490 2 -509 1 -580 -19z"/>
<path d="M445 1898 c-73 -10 -108 -18 -120 -28 -5 -4 -12 -8 -15 -9 -32 -1
-121 -61 -178 -120 -48 -50 -106 -161 -122 -231 -6 -28 -9 -247 -7 -575 3
-588 1 -568 72 -685 67 -111 177 -191 309 -225 81 -20 1003 -22 1081 -1 187
49 316 173 369 356 14 47 16 125 16 575 -1 564 -1 571 -56 680 -34 68 -121
160 -184 197 -25 15 -77 36 -115 49 -68 22 -81 22 -535 23 -256 1 -487 -2
-515 -6z"/>
<path d="M2645 1898 c-182 -23 -334 -145 -404 -325 l-26 -68 -2 -525 c-3 -573
-3 -581 55 -699 36 -73 142 -179 214 -214 113 -54 124 -55 646 -56 533 -1 562
1 673 60 130 69 239 227 256 369 5 36 8 286 7 555 -2 470 -3 493 -23 556 -39
122 -130 233 -242 294 -101 55 -134 58 -634 59 -254 1 -487 -2 -520 -6z"/>
<path d="M4859 1898 c-160 -20 -306 -124 -380 -270 -54 -107 -56 -128 -54
-688 2 -573 2 -571 70 -685 69 -114 195 -205 325 -234 28 -7 235 -10 555 -8
471 2 514 4 560 21 153 58 269 179 321 336 16 50 18 99 18 565 0 485 -4 588
-24 624 -4 9 -7 18 -7 21 4 12 -66 124 -101 162 -52 58 -144 115 -227 140 -67
21 -90 22 -535 22 -256 1 -491 -2 -521 -6z"/>
</g>
</svg>
